<?xml version="1.0" encoding="UTF-8" standalone="no"?>
<!-- Created with Inkscape (http://www.inkscape.org/) -->

<svg
   xmlns:dc="http://purl.org/dc/elements/1.1/"
   xmlns:cc="http://creativecommons.org/ns#"
   xmlns:rdf="http://www.w3.org/1999/02/22-rdf-syntax-ns#"
   xmlns:svg="http://www.w3.org/2000/svg"
   xmlns="http://www.w3.org/2000/svg"
   xmlns:sodipodi="http://sodipodi.sourceforge.net/DTD/sodipodi-0.dtd"
   xmlns:inkscape="http://www.inkscape.org/namespaces/inkscape"
   width="30.104103mm"
   height="29.934898mm"
   viewBox="0 0 30.104103 29.934898"
   version="1.1"
   id="svg8"
   inkscape:version="0.92.3 (2405546, 2018-03-11)"
   sodipodi:docname="logo.svg"
   inkscape:export-filename="C:\Development\Projects\MFF\MobileApp\CophiPoint\TestPhpServer\coffee.png"
   inkscape:export-xdpi="399.88956"
   inkscape:export-ydpi="399.88956">
  <defs
     id="defs2" />
  <sodipodi:namedview
     id="base"
     pagecolor="#ffffff"
     bordercolor="#666666"
     borderopacity="1.0"
     inkscape:pageopacity="0.0"
     inkscape:pageshadow="2"
     inkscape:zoom="7.919596"
     inkscape:cx="81.353039"
     inkscape:cy="80.925884"
     inkscape:document-units="mm"
     inkscape:current-layer="g839"
     showgrid="true"
     inkscape:window-width="3840"
     inkscape:window-height="2066"
     inkscape:window-x="-11"
     inkscape:window-y="-11"
     inkscape:window-maximized="1"
     fit-margin-top="0"
     fit-margin-left="0"
     fit-margin-right="0"
     fit-margin-bottom="0">
    <inkscape:grid
       type="xygrid"
       id="grid815"
       originx="-74.103186"
       originy="-78.544265" />
  </sodipodi:namedview>
  <metadata
     id="metadata5">
    <rdf:RDF>
      <cc:Work
         rdf:about="">
        <dc:format>image/svg+xml</dc:format>
        <dc:type
           rdf:resource="http://purl.org/dc/dcmitype/StillImage" />
        <dc:title></dc:title>
      </cc:Work>
    </rdf:RDF>
  </metadata>
  <g
     inkscape:label="Vrstva 1"
     inkscape:groupmode="layer"
     id="layer1"
     transform="translate(-74.103188,-188.52083)">
    <g
       id="g839"
       transform="translate(0.51982117)"
       style="stroke:#d03145;stroke-opacity:1">
      <path
         id="path821"
         style="fill:#d03145;fill-opacity:1;fill-rule:evenodd;stroke:#d03145;stroke-width:1;stroke-linecap:round;stroke-linejoin:round;stroke-miterlimit:4;stroke-dasharray:none;stroke-opacity:1"
         d="m 74.083331,201.75 c 2.645836,5.29167 1.322919,9.26042 5.291669,13.22917 3.96875,3.96875 14.552083,3.96875 18.520833,0 3.968747,-3.96875 2.645837,-7.9375 5.291667,-13.22917 -2.63649,0 -0.51982,13.22917 -14.54274,13.22917 -14.022917,0 -10.129252,-12.77302 -14.561429,-13.22917 z"
         inkscape:connector-curvature="0"
         sodipodi:nodetypes="cssczc" />
    </g>
    <g
       id="g835"
       style="fill:#d03145;fill-opacity:1;stroke:none"
       transform="translate(2.4492833,13.229164)">
      <path
         sodipodi:nodetypes="czczc"
         inkscape:connector-curvature="0"
         id="path829"
         d="m 84.666666,195.13542 c -2.645833,-1.32292 -3.968749,-5.29167 -2.645834,-7.9375 1.322915,-2.64583 2.910418,-3.96875 1.322918,-7.9375 2.910417,1.32291 3.96875,3.96875 2.645833,6.61458 -1.322916,2.64583 -2.645833,5.29167 -1.322917,9.26042 z"
         style="fill:#d03145;fill-opacity:1;stroke:none;stroke-width:0.26458332px;stroke-linecap:butt;stroke-linejoin:miter;stroke-opacity:1" />
      <path
         style="fill:#d03145;fill-opacity:1;stroke:none;stroke-width:0.26458332px;stroke-linecap:butt;stroke-linejoin:miter;stroke-opacity:1"
         d="m 89.958333,195.13542 c -2.645833,-1.32292 -3.968749,-5.29167 -2.645834,-7.9375 0.773416,-1.54683 2.208291,-4.37597 1.395622,-6.93841 -0.577388,-1.82057 -2.61687,-3.31934 -5.364371,-4.96784 3.457538,0 6.539399,1.50731 7.828171,3.95543 1.176765,2.23536 0.740738,5.36508 0.109329,6.6279 -1.322917,2.64583 -2.645833,5.29167 -1.322917,9.26042 z"
         id="path831"
         inkscape:connector-curvature="0"
         sodipodi:nodetypes="csscssc" />
    </g>
  </g>
</svg>
