<?xml version="1.0" encoding="UTF-8" standalone="no"?>
<svg
   xmlns:dc="http://purl.org/dc/elements/1.1/"
   xmlns:cc="http://creativecommons.org/ns#"
   xmlns:rdf="http://www.w3.org/1999/02/22-rdf-syntax-ns#"
   xmlns:svg="http://www.w3.org/2000/svg"
   xmlns="http://www.w3.org/2000/svg"
   width="106.66664mm"
   height="119.83333mm"
   viewBox="0 0 106.66664 119.83333"
   version="1.1"
   id="svg8">
  <style>
    .fill{
    fill:#ffffff;
    fill-opacity:1;
    stroke:none;
    stroke-width:1;
    stroke-linecap:butt;
    stroke-linejoin:round;
    stroke-miterlimit:4;
    stroke-dasharray:none;
    stroke-opacity:1;
    }
    .stroke{
    fill:none;
    stroke:#ffffff;
    stroke-width:2;
    stroke-linecap:butt;
    stroke-linejoint:round;
    stroke-miterlimit:4;
    stroke-dasharray:none;
    stroke-opacity:1;
    }
  </style>
  <defs
     id="defs2" />
  <g
     id="layer1"
     transform="translate(-41.916677,-137.83333)">
    <path
       class="stroke"
       d="M 63.499999,254.66666 H 127 L 137.58333,148.83333 H 52.916667 Z"
       id="path830"/>
    <path
       class="fill"
       d="m 285,632.51953 c -27.5,0 -55,9.99999 -75,30 l 30,300 h 240 l 30,-300 c -39.99999,39.99999 -110.00001,40.00003 -150,0 -20,-20.00001 -47.5,-30 -75,-30 z m -15,5 h 25 v 5 h -25 z m 0,20 h 45 v 5 h -45 z m 0,20 h 25 v 5 h -25 z m 0,20 h 25 v 5 h -25 z m 0,20 h 25 v 5 h -25 z m 172.5,10 a 22.5,24.999999 0 0 1 22.5,25 22.5,24.999999 0 0 1 -22.5,25 22.5,24.999999 0 0 1 -22.5,-25 22.5,24.999999 0 0 1 22.5,-25 z m -172.5,10 h 25 v 5 h -25 z m 0,20 h 45 v 5 h -45 z m 0,20 h 25 v 5 h -25 z m 0,20 h 25 v 5 h -25 z m 185,0 a 15,15 0 0 1 15,15 15,15 0 0 1 -15,15 15,15 0 0 1 -15,-15 15,15 0 0 1 15,-15 z m -185,20 h 25 v 5 h -25 z m 0,20 h 25 v 5 h -25 z m 0,20 h 45 v 5 h -45 z m 150,0 a 9.9999994,9.9999994 0 0 1 10,10 9.9999994,9.9999994 0 0 1 -10,10 9.9999994,9.9999994 0 0 1 -10,-10 9.9999994,9.9999994 0 0 1 10,-10 z m -150,20 h 25 v 5 h -25 z m 0,20 h 25 v 5 h -25 z m 172.5,5 a 7.4999996,7.4999996 0 0 1 7.5,7.5 7.4999996,7.4999996 0 0 1 -7.5,7.5 7.4999996,7.4999996 0 0 1 -7.5,-7.5 7.4999996,7.4999996 0 0 1 7.5,-7.5 z m -172.5,15 h 25 v 5 h -25 z m 0,20 h 25 v 5 h -25 z m 160,0 a 4.9999993,4.9999993 0 0 1 5,5 4.9999993,4.9999993 0 0 1 -5,5 4.9999993,4.9999993 0 0 1 -5,-5 4.9999993,4.9999993 0 0 1 5,-5 z"
       transform="scale(0.26458333)"
       id="path832"/>
    <path
       class="fill"
       d="m 71.437499,163.38541 v 1.32292 h 6.614583 v -1.32292 h -6.614583"
       id="path893"/>
    <path
       class="fill"
       d="m 71.437499,158.09375 v 1.32292 h 6.614583 v -1.32292 h -6.614583"
       id="path897" />
    <path
        class="fill"
       id="path899"
       d="m 71.437499,152.80208 v 1.32292 h 6.614583 v -1.32292 h -6.614583"/>
  </g>
</svg>
